<svg xmlns="http://www.w3.org/2000/svg" viewBox="0 0 24 24" width="24" height="24" fill="none">
  <circle cx="12" cy="12" r="10" stroke="#00b99b" stroke-width="1.6" />
  <path
    d="M12 4c3 0 5 1.6 5 4.2 0 2-1.6 3.2-3.6 3.2-1.6 0-2.8-.9-2.8-2.3 0-1.1.9-1.8 1.9-1.8"
    stroke="#00b99b"
    stroke-width="1.5"
    stroke-linecap="round"
  />
  <path
    d="M12 20c-3 0-5-1.6-5-4.2 0-2 1.6-3.2 3.6-3.2 1.6 0 2.8.9 2.8 2.3 0 1.1-.9 1.8-1.9 1.8"
    stroke="#00b99b"
    stroke-width="1.5"
    stroke-linecap="round"
  />
  <circle cx="12" cy="12" r="1.8" fill="#00b99b" />
  <circle cx="17" cy="7" r="0.7" fill="#00b99b" />
  <circle cx="7" cy="17" r="0.7" fill="#00b99b" />
  <circle cx="18" cy="15" r="0.6" fill="#00b99b" />
</svg>
